<?xml version="1.0" standalone="no"?>
<!DOCTYPE svg PUBLIC "-//W3C//DTD SVG 20010904//EN"
 "http://www.w3.org/TR/2001/REC-SVG-20010904/DTD/svg10.dtd">
<svg version="1.0" xmlns="http://www.w3.org/2000/svg"
 width="1343.000000pt" height="1343.000000pt" viewBox="0 0 1343.000000 1343.000000"
 preserveAspectRatio="xMidYMid meet">
<metadata>
Created by potrace 1.11, written by Peter Selinger 2001-2013
</metadata>
<g transform="translate(0.000000,1343.000000) scale(0.100000,-0.100000)"
fill="#000000" stroke="none">
<path d="M5939 11185 c-2 -1 -55 -6 -118 -10 -63 -3 -117 -8 -120 -10 -3 -1
-40 -6 -81 -9 -41 -3 -86 -8 -100 -10 -14 -2 -46 -7 -71 -10 -25 -4 -57 -9
-70 -11 -13 -2 -41 -6 -61 -9 -98 -15 -222 -39 -346 -67 -76 -17 -146 -32
-156 -34 -10 -3 -33 -9 -51 -15 -18 -6 -42 -13 -55 -15 -118 -23 -572 -178
-775 -265 -305 -131 -669 -320 -832 -431 -23 -16 -44 -29 -47 -29 -23 0 -411
-277 -578 -411 -909 -736 -1577 -1695 -1927 -2773 -97 -298 -199 -738 -226
-981 -4 -33 -9 -62 -10 -65 -2 -3 -6 -45 -10 -95 -4 -49 -9 -97 -10 -107 -26
-137 -25 -927 0 -1061 2 -9 7 -54 10 -100 4 -45 10 -102 15 -127 4 -25 8 -52
8 -60 0 -17 7 -61 27 -175 8 -44 17 -96 20 -115 3 -19 13 -66 21 -105 8 -38
17 -81 20 -95 47 -245 209 -770 329 -1065 105 -258 346 -765 390 -820 11 -14
11 -9 -3 20 -35 73 -139 357 -186 506 -60 194 -134 494 -160 644 -10 58 -28
170 -31 198 -19 140 -26 190 -31 242 -3 33 -7 71 -9 85 -24 162 -24 775 0
1000 2 19 7 67 10 105 3 39 8 81 10 95 2 14 7 50 10 80 6 55 11 94 20 140 3
14 7 41 10 60 3 19 7 46 10 60 3 14 7 41 10 60 12 68 55 267 85 385 17 66 32
127 34 136 26 105 144 468 176 544 13 31 75 189 76 195 1 9 20 50 89 205 94
211 158 335 323 625 14 25 66 108 115 185 374 586 836 1089 1357 1481 128 96
317 227 375 260 11 6 67 39 125 73 394 235 957 449 1380 526 14 3 48 9 75 15
28 5 70 12 95 15 25 3 52 8 60 10 8 2 44 7 80 10 36 3 79 7 95 10 178 24 753
24 895 0 14 -2 50 -7 80 -10 192 -19 404 -56 640 -112 14 -3 30 -7 36 -9 128
-26 488 -144 689 -224 811 -325 1524 -842 2018 -1463 132 -165 382 -550 703
-1082 145 -239 215 -363 289 -507 24 -47 49 -89 54 -92 7 -5 654 227 736 264
11 5 182 68 380 140 198 73 375 138 393 146 l34 14 -45 82 c-126 234 -195 354
-284 491 -35 54 -63 102 -63 107 0 6 -4 10 -10 10 -5 0 -10 4 -10 9 0 10 -142
220 -239 354 -83 115 -264 350 -331 432 -19 23 -49 60 -67 81 -17 22 -41 50
-53 64 -12 14 -45 52 -73 85 -152 175 -231 260 -432 460 -243 243 -253 253
-440 411 -293 248 -522 406 -920 636 -127 73 -445 235 -575 292 -36 15 -84 37
-107 47 -24 10 -45 19 -48 19 -3 0 -27 9 -53 21 -325 144 -876 299 -1327 374
-108 18 -262 38 -400 50 -38 4 -83 9 -100 12 -35 5 -761 13 -766 8z"/>
<path d="M13029 6845 c-4 -3 -362 -130 -394 -139 -5 -2 -17 -6 -25 -9 -15 -5
-473 -164 -595 -206 -33 -11 -139 -48 -235 -81 -168 -59 -357 -124 -505 -175
-38 -13 -110 -38 -160 -56 -49 -17 -200 -69 -335 -116 -135 -47 -355 -123
-490 -170 -135 -46 -328 -113 -430 -149 -102 -35 -237 -82 -300 -104 -63 -22
-153 -53 -200 -69 -83 -29 -388 -134 -785 -273 -110 -38 -231 -80 -270 -93
-38 -13 -149 -51 -245 -85 -96 -34 -200 -69 -230 -79 -30 -11 -147 -51 -260
-91 -113 -39 -236 -82 -275 -95 -38 -13 -162 -56 -275 -95 -181 -63 -504 -175
-1182 -410 -310 -107 -584 -223 -596 -252 -2 -4 -7 -8 -12 -8 -17 0 -132 -84
-199 -146 -240 -222 -330 -550 -245 -889 21 -85 95 -229 155 -303 122 -151
331 -273 525 -307 77 -14 90 -15 198 -21 265 -13 506 65 819 268 70 46 212
138 315 204 172 112 783 498 877 554 22 13 42 26 45 29 3 4 16 12 30 20 14 8
279 174 590 369 311 196 689 433 840 528 151 95 280 177 285 182 6 5 15 11 21
13 5 2 65 39 134 82 69 44 175 110 235 148 61 38 117 73 125 79 8 6 39 25 68
43 29 17 120 75 203 127 82 52 172 109 198 125 27 17 184 116 350 220 165 105
312 197 325 205 62 39 336 211 1051 665 215 136 399 252 409 259 11 6 25 15
30 19 6 4 97 63 201 130 221 142 243 157 229 157 -6 0 -13 -2 -15 -5z"/>
</g>
</svg>
